STARTFONT 2.1
COMMENT
COMMENT Converted from OpenType font "Font 90 Icons.ttf" by "otf2bdf 3.0".
COMMENT
FONT -FreeType-Font 90 Icons-Medium-R-Normal--35-250-100-100-P-132-ISO10646-1
SIZE 25 100 100
FONTBOUNDINGBOX 37 36 0 -7
STARTPROPERTIES 19
FOUNDRY "FreeType"
FAMILY_NAME "Font 90 Icons"
WEIGHT_NAME "Medium"
SLANT "R"
SETWIDTH_NAME "Normal"
ADD_STYLE_NAME ""
PIXEL_SIZE 35
POINT_SIZE 250
RESOLUTION_X 100
RESOLUTION_Y 100
SPACING "P"
AVERAGE_WIDTH 132
CHARSET_REGISTRY "ISO10646"
CHARSET_ENCODING "1"
FONT_ASCENT 29
FONT_DESCENT 7
COPYRIGHT "Typeface © (el-harrak.blogspot.com). <darrati10@gmail.com>. All Rights Reserved"
_OTF_FONTFILE "Font 90 Icons.ttf"
_OTF_PSNAME "Font 90 Icons"
ENDPROPERTIES
CHARS 242
STARTCHAR 0000
ENCODING 0
SWIDTH 0 0
DWIDTH 0 0
BBX 0 0 0 0
BITMAP
ENDCHAR
STARTCHAR 001D
ENCODING 29
SWIDTH 0 0
DWIDTH 0 0
BBX 0 0 0 0
BITMAP
ENDCHAR
STARTCHAR 0020
ENCODING 32
SWIDTH 259 0
DWIDTH 9 0
BBX 0 0 0 0
BITMAP
ENDCHAR
STARTCHAR 0021
ENCODING 33
SWIDTH 979 0
DWIDTH 34 0
BBX 34 34 0 -6
BITMAP
0007F80000
003FEF0000
00FFFDC000
01FFFE6000
03FFFF1800
07FFFF0C00
0FFFFF8400
1FFE1F8200
3FFE1F8100
3FFE1F8100
7FFE1F8080
7FFFFF8080
7FFFFF0080
7FFFFF00C0
FFFFFE0040
FFFFF80040
FFFFE00040
FFFC000040
FFF0000040
FFE0000040
7FC00000C0
7FC0000080
7FC0400080
3F81E00180
3F81E00100
1F81E00300
1F80C00600
0FC0000400
07C0000800
03E0003000
01F0006000
007801C000
001FBE0000
0001E00000
ENDCHAR
STARTCHAR 0022
ENCODING 34
SWIDTH 979 0
DWIDTH 34 0
BBX 34 27 0 -2
BITMAP
0007F80000
000FFC0000
0008060000
0008060000
0008060000
3FFFFFFF80
7FFFFFFFC0
FFFFFFFFC0
FFFFFFFFC0
FFFFFFFFC0
FFFFFFFFC0
FFFFFFFFC0
FFFFFFFFC0
FFFFFFFFC0
FFFFFFFFC0
FFFFFFFFC0
FFFFFFFFC0
FFFFFFFFC0
FFFFFFFFC0
FFFFFFFFC0
FFFFFFFFC0
FFFFFFFFC0
FFFFFFFFC0
FFFFFFFFC0
FFFFFFFFC0
7FFFFFFFC0
7FFFFFFF80
ENDCHAR
STARTCHAR 0023
ENCODING 35
SWIDTH 979 0
DWIDTH 34 0
BBX 32 36 1 -7
BITMAP
003F0000
21FFE000
F3FFF800
F7FFFF98
77FFFFFC
77FFFFFC
7BFFFFFC
7BFFFFFC
7BFFFFFC
3BFFFFFC
3BFFFFFE
3DFFFFFE
3DFFFFFE
3DFFFFFE
3DFFFFFE
1DFFFFFE
1CFE3FFF
1EF003FF
1EC000FF
1E80003F
1E000000
0E000000
0F000000
0F000000
0F000000
0F000000
07000000
07000000
07800000
07800000
07800000
07800000
03800000
03800000
03C00000
01800000
ENDCHAR
STARTCHAR 0024
ENCODING 36
SWIDTH 979 0
DWIDTH 34 0
BBX 34 34 0 -6
BITMAP
0F00000000
1F80000000
3FC0000000
7FE0000000
7FF0000000
FFF8000000
FFFC000000
7FFE000000
7FFF800000
3FFFC00000
1FFFE00000
0FFFF00000
07FFF80000
03FFF00000
01FFE00000
00FFC00000
007FC00000
007FE00000
003E700000
001C180000
00080C0000
0000060000
0000020000
0000010000
0000008000
0000004000
0000002000
0000001000
0000000800
0000000400
0000000200
0000000100
0000000080
0000000040
ENDCHAR
STARTCHAR 0025
ENCODING 37
SWIDTH 979 0
DWIDTH 34 0
BBX 32 36 1 -7
BITMAP
0003C000
0007E000
0007E000
0007E000
003FFC00
00FFFF00
01FFFF80
03FFFFCC
7FF3CFFE
FFC3C3FF
FF83C1FF
FF8181FF
7FC183FE
3FE187FC
3FF18FFC
3CFFFE3E
3C0FF03E
3C07E03E
3C07E03E
3C1FF83E
3CFFFFBC
3FF18FFC
3FE187FC
7FC183FE
FF81C1FF
FF83C1FF
FFE3C3FF
7FFBCFFE
03FFFFC0
01FFFF80
007FFF00
001FFC00
0007E000
0007E000
0003C000
00018000
ENDCHAR
STARTCHAR 0026
ENCODING 38
SWIDTH 979 0
DWIDTH 34 0
BBX 34 34 0 -6
BITMAP
0007F80000
003FFF0000
00F807C000
01E000E000
0380C07800
070FFC1C00
0C3FFF0C00
1C7FFF8600
38FFFFC700
31FFFFE300
73DFFFF380
63CFFFF180
67E7FDF980
67F3FBF8C0
C7F9F7F8C0
C7FCEFF8C0
C7FE1FF8C0
C7FF1FF8C0
C7FF3FF8C0
C7FFFFF8C0
67FFFFF980
63FFFFF980
63FFFFF180
31FFFFF380
31FFFFE300
18FFFFC600
1C7FFF8E00
0E1FFE1C00
0707F83800
0380007000
01E001E000
007E1F8000
001FFE0000
0001E00000
ENDCHAR
STARTCHAR 0027
ENCODING 39
SWIDTH 979 0
DWIDTH 34 0
BBX 34 34 0 -6
BITMAP
003F800000
01FFF00000
03FFF80000
0FFFFC0000
1FFFFE0000
1FE0FF0000
3F803F8000
3F0E1F8000
7E0E0FC000
7C0E07C000
7C0E07C000
FCFFE7C000
F9FFF7E000
F9FFE7E000
FC7FC7E000
7C0E07C000
7C0E07C000
7E0E0FC000
7E0E1F8000
3F803F8000
1FC07FC000
1FFFFFE000
0FFFFFF000
07FFFFF800
01FFFFFC00
007FCFFE00
000007FF00
000003FF80
000001FFC0
000000FFC0
0000007FC0
0000003F80
0000001F80
0000000F00
ENDCHAR
STARTCHAR 0028
ENCODING 40
SWIDTH 979 0
DWIDTH 34 0
BBX 34 34 0 -6
BITMAP
007FC00000
01FFF00000
07FFFC0000
0FFFFE0000
1FFFFF0000
1FC07F0000
3F803F8000
7E001F8000
7E000FC000
7C0007C000
FC0007C000
F8FFE7E000
F9FFF3E000
F9FFE7E000
FC0007E000
FC0007C000
7C0007C000
7E000FC000
3F001F8000
3F803F8000
1FE0FFC000
1FFFFFE000
0FFFFFF000
03FFFFF800
01FFFFFC00
003F8FFE00
000007FF00
000003FF80
000001FFC0
000000FFC0
0000007FC0
0000003FC0
0000001F80
0000000F00
ENDCHAR
STARTCHAR 0029
ENCODING 41
SWIDTH 979 0
DWIDTH 34 0
BBX 34 26 0 -2
BITMAP
3FFFFFFF80
7FFFFFFFC0
F0000003C0
F8000007C0
DC00000FC0
CE00001EC0
C700003CC0
C3800078C0
C1C000F0C0
C0E001E0C0
C07003C0C0
C0380780C0
C01C0F00C0
C01E1F00C0
C03F3F80C0
C077FBC0C0
C0E1F1E0C0
C1C000F0C0
C3800078C0
C700003CC0
CE00001EC0
DC00000FC0
F8000007C0
FFFFFFFFC0
7FFFFFFFC0
3FFFFFFF80
ENDCHAR
STARTCHAR 002A
ENCODING 42
SWIDTH 979 0
DWIDTH 34 0
BBX 30 36 2 -7
BITMAP
00078000
00078000
00078000
00078000
00078000
00078000
00078000
00078000
00078000
03878700
03E79F00
03FFFF00
01FFFE00
00FFFC00
3F7FFFF0
3FBFFFF8
5FDFFFE4
EFEFFFCC
F7F7FFBC
FBFAFF7C
FDFFFEFC
FEFFFDFC
FF7FFBFC
FFBFF7FC
FFDFEFFC
FFCFCFFC
FFB797FC
FF7B3BFC
FEFEFDFC
FDFFFEFC
FBFFFF7C
F7FFFFBC
EFFFFFDC
DFFFFFEC
3FFFFFF0
3FFFFFF0
ENDCHAR
STARTCHAR 002B
ENCODING 43
SWIDTH 979 0
DWIDTH 34 0
BBX 34 34 0 -6
BITMAP
FFFFFFFFC0
FFFFFFFFC0
FFFFFFFFC0
FFFFFFFFC0
F7FFFFFBC0
F01FFE03C0
F03FFF83C0
F03FFF03C0
F01FFE03C0
F00FFC03C0
F20FFC13C0
F71FFE3BC0
FFBFFF7FC0
FFFFFFFFC0
FFFFFFFFC0
FFFFFFFFC0
FFFFFFFFC0
FFFFFFFFC0
FFFFFFFFC0
FFFFFFFFC0
FFFFFFFFC0
FFBFFF7FC0
F71FFE3BC0
F20FFC13C0
F00FFC03C0
F01FFE03C0
F03FFF83C0
F03FFF03C0
F01FFE03C0
FFFFFFFFC0
FFFFFFFFC0
FFFFFFFFC0
FFFFFFFFC0
FFFFFFFFC0
ENDCHAR
STARTCHAR 002C
ENCODING 44
SWIDTH 979 0
DWIDTH 34 0
BBX 34 34 0 -6
BITMAP
0000003800
00000FFC00
00003FFE00
00007FFF00
0000FFFF80
0001FFCFC0
0003FF87C0
0007FF87C0
000FFFCF80
001FFFFF80
003FFFFF80
007FFFFF80
00FFFFFF80
01FFFFFF80
03DFFFFF00
078FFFFE00
0FC7FFFC00
1E63FFF800
3E31FFF000
7F18FFE000
FF8C7FC000
7FC63F8000
3FE31F0000
1FF18E0000
0FF8DC0000
07FC780000
03FE700000
01FFE00000
00FFC00000
007F800000
003F000000
001E000000
000C000000
0004000000
ENDCHAR
STARTCHAR 002D
ENCODING 45
SWIDTH 979 0
DWIDTH 34 0
BBX 34 34 0 -6
BITMAP
0007F80000
003FFF0000
00FC0FC000
01E001E000
0380007800
0700003C00
0F00021C00
1D80060E00
38C0060700
30600E0300
70301E0380
60183E0180
60007E0180
601FFE01C0
E01FFE00C0
C01FFE00C0
C01FFE00C0
C01FFE00C0
E01FFE00C0
E01FFE01C0
601FFE01C0
60007E0180
70003E0180
30001E8380
38000E4300
1800066700
1C00023E00
0E00001C00
0700003800
03C0007000
01F003E000
007F3F8000
001FFE0000
0003E00000
ENDCHAR
STARTCHAR 002E
ENCODING 46
SWIDTH 979 0
DWIDTH 34 0
BBX 29 36 3 -7
BITMAP
3FFFFFE0
30000060
30000020
30000020
30000020
30000020
30000020
30000020
30000020
30000020
30000020
30000020
30000020
30000020
30000020
30000020
30000020
3FFFFFE0
00000000
00000000
3FFFFFE0
3FFFFFE0
3FFFC0E0
3FFFC0E0
3FFFFFE0
3FFFFFE0
3FFFFFE0
00020000
00020000
00020000
00020000
007FF000
007FF000
FFFFFFF8
FFFFFFF8
007FF000
ENDCHAR
STARTCHAR 002F
ENCODING 47
SWIDTH 979 0
DWIDTH 34 0
BBX 34 34 0 -6
BITMAP
0C03F00600
0C0FFC0C00
0E0FFC0C00
061FFE1C00
461FFE1880
E71FFE38C0
671FFE39C0
631FFE3980
731FFE3180
739FFE7380
739FFE7380
739FFE7380
339FFE7380
339FFE7380
339FFE7380
339FFE7380
739FFE7380
739FFE7380
739FFE3380
631FFE3180
631FFE3980
671FFE39C0
C71FFE18C0
460FFC18C0
0E07F81C00
0C03F00C00
0C03F00E00
0803F00400
0003F00000
0003F00000
0003F00000
0003F00000
0003F00000
0003F00000
ENDCHAR
STARTCHAR 0030
ENCODING 48
SWIDTH 979 0
DWIDTH 34 0
BBX 34 34 0 -6
BITMAP
0007F80000
003FFF0000
00FFFFC000
01FFFFE000
03FFFFF000
07FFFFF800
0F9FFE7C00
1F0FFC3E00
3E0FFC1F00
3C07F80F00
7C07F80F80
7803F00780
7801F00780
7803F003C0
F007F803C0
F0061803C0
F0061C03C0
FFFE1FFFC0
FFFE1FFFC0
FFFFFFFFC0
7FFFFFFFC0
7FFC0FFF80
7FFC0FFF80
3FF807FF80
3FF807FF00
1FF003FF00
1FE001FE00
0FE001FC00
07E001F800
03FE1FF000
01FFFFE000
007FFFC000
001FFF0000
0003F00000
ENDCHAR
STARTCHAR 0031
ENCODING 49
SWIDTH 979 0
DWIDTH 34 0
BBX 32 36 1 -7
BITMAP
0007E000
0007F000
0007F000
0007F000
0047F200
01C7F380
03C7F3C0
07C7F3E0
0FC7F3F0
1FC7F3F8
3F87F1FC
3F07F0FC
7E07F07E
7C07F03E
FC07F03F
F807F01F
F807F01F
F807F01F
F807F01F
F807F00F
F800001F
F800001F
F800001F
F800001F
FC00003F
7C00003E
7E00007E
3F0000FC
3F8001FC
1FC003F8
0FF81FF0
07FFFFE0
03FFFFC0
00FFFF80
003FFE00
0007E000
ENDCHAR
STARTCHAR 0032
ENCODING 50
SWIDTH 979 0
DWIDTH 34 0
BBX 32 36 1 -7
BITMAP
0003C000
0007E000
0007E000
0007E000
0007E000
0007E000
0007C000
2003C00C
7C03C03E
FE03C07F
FF0380FF
FF8181FF
7FC183FE
1FE187F8
07F18FE0
00FFFE00
000FF000
0007E000
0007E000
001FF800
00FFFF80
07F18FF0
3FE187FC
7FC183FE
FF81C1FF
FF03C0FF
FE03C07F
7803C01E
0003C000
0007E000
0007E000
0007E000
0007E000
0007E000
0003C000
00018000
ENDCHAR
STARTCHAR 0033
ENCODING 51
SWIDTH 979 0
DWIDTH 34 0
BBX 34 32 0 -5
BITMAP
0000400000
0000C00000
0000C00000
0001E00000
0001E00000
0003F00000
0003F00000
0007F80000
0007F80000
000FFC0000
001FFE0000
0FFFFFFC00
FFFFFFFFC0
3FFFFFFF00
1FFFFFFE00
0FFFFFFC00
07FFFFF800
03FFFFF000
01FFFFE000
00FFFFC000
007FFFC000
00FFFFC000
00FFFFC000
00FFFFC000
00FFFFC000
00FFFFC000
00FFFFE000
01FE1FE000
01F807E000
01E001E000
0180006000
0100001000
ENDCHAR
STARTCHAR 0034
ENCODING 52
SWIDTH 979 0
DWIDTH 34 0
BBX 34 24 0 -1
BITMAP
3FFFFFFF00
3FFFFFFF00
DFFFFFFEC0
EFFFFFFDC0
F7FFFFFBC0
FBFFFFF7C0
FDFFFFEFC0
FEFFFFDFC0
FF7FFFBFC0
FFBFFF7FC0
FFDFFEFFC0
FFEFFDFFC0
FFE7F9FFC0
FFDBF6FFC0
FFBCCF7FC0
FF7E1FBFC0
FEFFFFDFC0
FDFFFFEFC0
FBFFFFF7C0
F7FFFFFBC0
EFFFFFFDC0
DFFFFFFEC0
3FFFFFFF00
3FFFFFFF00
ENDCHAR
STARTCHAR 0035
ENCODING 53
SWIDTH 979 0
DWIDTH 34 0
BBX 34 26 0 -3
BITMAP
0001E3E000
000333E000
00061BE000
001CC7E000
0033F3E000
00E7F9E000
019FFE6000
073FFF3800
0CFFFFCC00
39FFFFE700
63FFFFF180
C7FFFFF8C0
07FFFFF800
07FFFFF800
07FC0FF800
07FC0FF800
07FC0FF800
07FC0FF800
07FC0FF800
07FC0FF800
07FC0FF800
07FC0FF800
07FC0FF800
07FC0FF800
07FC0FF800
03FC0FF000
ENDCHAR
STARTCHAR 0036
ENCODING 54
SWIDTH 979 0
DWIDTH 34 0
BBX 34 36 0 -7
BITMAP
010000E000
07C001F000
0FC001F800
0FC001F800
07C001F000
038000E000
0000000000
3FF807FC00
7FFC0FFE00
FFFC0FFE00
FFFC0FFF00
FFEC1FFF00
FFEC1FFB00
FFEC1BFB80
FFEC3BFF80
FFEC3FFD80
FFEC37FD80
FFEC37FFC0
FFEC7FFFC0
FFEC0FFE00
5FE80FFE00
1EE00FFF00
1EE01FFF00
1EE01FFF00
1EE003B800
1EE003B800
1EE003B800
1EE003B800
1EE003B800
1EE003B800
1EE003B800
1EE003B800
1EE003B800
1EE003B800
0EE003B800
0440019000
ENDCHAR
STARTCHAR 0037
ENCODING 55
SWIDTH 979 0
DWIDTH 34 0
BBX 34 26 0 -2
BITMAP
003F800000
01FFE00000
03E1F80000
0FC0FC0000
1FC07E0000
1F807F0000
3FC07F0000
7FC0FF8000
7FE1FF8000
70FFC3C000
E07F81C000
E03F80C000
C03F80C000
E03F80C000
E07F81C000
70FFC1C000
7FE1FFC000
7FC0FF8000
3FC07F8000
3F807F0000
1FC07F0000
0FC0FF00C0
07E0FF87C0
03FFF9FF80
00FFE0FC00
003E000000
ENDCHAR
STARTCHAR 0038
ENCODING 56
SWIDTH 979 0
DWIDTH 34 0
BBX 26 36 4 -7
BITMAP
7FFFFFC0
FFFFFFC0
FFFFFFC0
E00000C0
E00000C0
E00000C0
E00000C0
E00000C0
E00000C0
E00001C0
FFFFFFC0
FFFFFFC0
E1E1E1C0
E1E1E1C0
E1E1E1C0
E1E1E1C0
E1E1E1C0
FFFFFFC0
FFFFFFC0
FFFFFFC0
E1E1E1C0
E1E1E1C0
E1E1E1C0
E1E1E1C0
E1E1E1C0
FFFFFFC0
FFFFFFC0
FFFFFFC0
E1E1E1C0
E1E1E1C0
E1E1E1C0
E1E1E1C0
FFFFFFC0
FFFFFFC0
FFFFFFC0
7FFFFF80
ENDCHAR
STARTCHAR 0039
ENCODING 57
SWIDTH 979 0
DWIDTH 34 0
BBX 34 32 0 -5
BITMAP
E000000000
F000000000
3800000000
1C00000000
1C3FFFFFC0
0E3FFFFF80
063FFFFF80
073FFFFF00
033FFFFF00
039FFFFE00
039FFFFE00
039FFFFE00
019FFFFC00
01DFFFFC00
01DFFFF800
01CFFFF800
01C0000000
00C0000000
00C0000000
00C0000000
00E0000000
00FFFFFF00
00FFFFFE00
0000000000
0000000000
0070003800
00F8007E00
01FC00FE00
01FC00FE00
01FC00FE00
00F8007E00
0070003C00
ENDCHAR
STARTCHAR 003A
ENCODING 58
SWIDTH 979 0
DWIDTH 34 0
BBX 34 34 0 -6
BITMAP
000007E000
00001FF800
00003FFC00
00007FFE00
0000FFCF00
0001FF8780
0001FF0380
0001FF03C0
0003FF87C0
0003FFCFC0
0003FFFFC0
0003FFFFC0
0001FFFF80
0001FFFF80
0005FFFF80
000CFFFF00
001E7FFE00
003F3FFC00
007F9FF800
00FFC18000
01FFF00000
03FF800000
07FF800000
0FFF800000
1FFC000000
3FFC000000
7FC0000000
FFC0000000
FFC0000000
FFC0000000
FE00000000
7E00000000
3E00000000
1E00000000
ENDCHAR
STARTCHAR 003B
ENCODING 59
SWIDTH 979 0
DWIDTH 34 0
BBX 34 34 0 -6
BITMAP
0000C00000
0000C00000
0000C00000
0000C00000
0000C00000
0000C00000
0000C00000
0000C00000
0000C00000
0000C00000
0000C00000
0000C00000
0000C00000
0000C00000
0000C00000
0000C00000
FFFFFFFFC0
FFFFFFFFC0
0000C00000
0000C00000
0000C00000
0000C00000
0000C00000
0000C00000
0000C00000
0000C00000
0000C00000
0000C00000
0000C00000
0000C00000
0000C00000
0000C00000
0000C00000
0000C00000
ENDCHAR
STARTCHAR 003C
ENCODING 60
SWIDTH 979 0
DWIDTH 34 0
BBX 34 27 0 -2
BITMAP
0000C00000
0000E00000
0001E00000
0001F00000
0003F00000
0007F80000
0007380000
000F3C0000
000E1E0000
001E0E0000
003C0F0000
0038070000
0078078000
007003C000
00F001C000
01E001E000
01C000E000
03C000F000
0380007800
0780003800
0F00003C00
0E00001C00
1E00001E00
1C00000F00
3C00000700
7800000780
F0000003C0
ENDCHAR
STARTCHAR 003D
ENCODING 61
SWIDTH 979 0
DWIDTH 34 0
BBX 34 34 0 -6
BITMAP
0007F80000
003F3F0000
00F001C000
0180006000
0300003800
0600001C00
0CFF800C00
18FFF80600
30383E0300
30381E0100
60380F0180
60380F0180
40380F0080
40380F00C0
C0381E00C0
C0383C00C0
C03FF000C0
C039E000C0
C038F000C0
C0387000C0
4038780080
40383C0080
60381E0180
20380E0100
30380F0300
103C078300
19FF03E600
0C00000C00
0600001800
0300003000
01C000E000
0078038000
001FFE0000
0003F00000
ENDCHAR
STARTCHAR 003E
ENCODING 62
SWIDTH 979 0
DWIDTH 34 0
BBX 34 34 0 -6
BITMAP
0007F80000
003FFF0000
00F003C000
01C0006000
0300003800
0600001C00
0C03F88C00
180E0F8600
303803C300
307001C100
60E000C180
60E000C180
41E0004080
41C00000C0
C3C00000C0
C3C00000C0
C3C00000C0
C3C00000C0
C3C00000C0
C3C00000C0
41E0000080
41E0000080
60E0004180
20F000C180
3078018300
101E070300
180FFC0600
0C00400C00
0600001800
0300003000
01C000E000
0078038000
001FFE0000
0001F00000
ENDCHAR
STARTCHAR 003F
ENCODING 63
SWIDTH 979 0
DWIDTH 34 0
BBX 34 34 0 -6
BITMAP
0003F80000
003FFF0000
00FFFFC000
01FFFFE000
03F807F000
07E001F800
0F80007C00
1F00003E00
1E00001F00
3C00000F00
3C00000F80
7800000780
7800000780
70000003C0
F0000003C0
F0000003C0
F0000003C0
F0000003C0
F0000003C0
F0000003C0
78000003C0
7800000780
7800000780
3C00000F80
3C00000F00
1E00001F00
1F00003E00
0F80007C00
07E001F800
03FC07F000
01FFFFE000
007FFFC000
001FFE0000
0001E00000
ENDCHAR
STARTCHAR 0040
ENCODING 64
SWIDTH 979 0
DWIDTH 34 0
BBX 34 34 0 -6
BITMAP
0000400000
0000C00000
0000C00000
0001E00000
0001E00000
0003F00000
0003F00000
0007F80000
0007F80000
000FFC0000
000FFC0000
001FFE0000
001FFE0000
003FFF0000
003FFF0000
007FFF8000
007FFF8000
00FFFFC000
00FFFFC000
01FFFFE000
01FFFFE000
03FFFFF000
03FFFFF000
07FFFFF800
07FFFFF800
0FFFFFFC00
0FFFFFFC00
1FFFFFFE00
1FFFFFFE00
3FFFFFFF00
3FFFFFFF00
7FFFFFFF80
7FFFFFFF80
FFFFFFFFC0
ENDCHAR
STARTCHAR 0041
ENCODING 65
SWIDTH 979 0
DWIDTH 34 0
BBX 34 32 0 -5
BITMAP
8008000000
E00E000000
F00F000000
F80F800000
FE0FE00000
FF0FF00000
FF8FF80000
FFEFFE0000
FFF3FF0000
FFF9FF8000
FFFEFFE000
FFFF3FF000
FFFF9FF800
FFFFEFFE00
FFFFF3FF00
FFFFFDFFC0
FFFFF9FF80
FFFFF7FF00
FFFFCFFC00
FFFF9FF800
FFFF7FF000
FFFCFFC000
FFF9FF8000
FFF7FF0000
FFCFFC0000
FF8FF80000
FF0FF00000
FC0FC00000
F80F800000
F00F000000
C00C000000
8008000000
ENDCHAR
STARTCHAR 0042
ENCODING 66
SWIDTH 979 0
DWIDTH 34 0
BBX 30 36 2 -7
BITMAP
800003FC
E00003FC
F80003FC
FC0003FC
FF0003FC
FF8003FC
FFE003FC
FFF803FC
FFFC03FC
FFFF03FC
FFFFC3FC
FFFFE3FC
FFFFFBFC
FFFFFFFC
FFFFFFFC
FFFFFFFC
FFFFFFFC
FFFFFFFC
FFFFFFFC
FFFFFFFC
FFFFFFFC
FFFFFFFC
FFFFFFFC
FFFFFBFC
FFFFE3FC
FFFF83FC
FFFF03FC
FFFC03FC
FFF003FC
FFE003FC
FF8003FC
FE0003FC
FC0003FC
F00003FC
E00003FC
800003FC
ENDCHAR
STARTCHAR 0043
ENCODING 67
SWIDTH 979 0
DWIDTH 34 0
BBX 26 36 4 -7
BITMAP
FFE1FFC0
FFE1FFC0
FFE1FFC0
FFE1FFC0
FFE1FFC0
FFE1FFC0
FFE1FFC0
FFE1FFC0
FFE1FFC0
FFE1FFC0
FFE1FFC0
FFE1FFC0
FFE1FFC0
FFE1FFC0
FFE1FFC0
FFE1FFC0
FFE1FFC0
FFE1FFC0
FFE1FFC0
FFE1FFC0
FFE1FFC0
FFE1FFC0
FFE1FFC0
FFE1FFC0
FFE1FFC0
FFE1FFC0
FFE1FFC0
FFE1FFC0
FFE1FFC0
FFE1FFC0
FFE1FFC0
FFE1FFC0
FFE1FFC0
FFE1FFC0
FFE1FFC0
FFE1FFC0
ENDCHAR
STARTCHAR 0044
ENCODING 68
SWIDTH 979 0
DWIDTH 34 0
BBX 30 36 2 -7
BITMAP
80000000
E0000000
F0000000
FC000000
FF000000
FF800000
FFE00000
FFF80000
FFFC0000
FFFF0000
FFFFC000
FFFFE000
FFFFF800
FFFFFC00
FFFFFF00
FFFFFFC0
FFFFFFE0
FFFFFFFC
FFFFFFF8
FFFFFFE0
FFFFFFC0
FFFFFF00
FFFFFC00
FFFFF800
FFFFE000
FFFF8000
FFFF0000
FFFC0000
FFF00000
FFE00000
FF800000
FE000000
FC000000
F0000000
E0000000
80000000
ENDCHAR
STARTCHAR 0045
ENCODING 69
SWIDTH 979 0
DWIDTH 34 0
BBX 34 34 0 -6
BITMAP
0007F80000
003FFF0000
00FFFFC000
01FFFFE000
03FFFFF000
07FFFFF800
0FFFFFFC00
1FFFFFFE00
1FFFFFFF00
3FFFBFFF00
3FF807FF80
7FF003FF80
7FE001FF80
7FE000FFC0
FFC000FFC0
FFC000FFC0
FFC0007FC0
FFC000FFC0
FFC000FFC0
7FC000FFC0
7FE000FF80
7FE001FF80
7FF003FF80
3FFC0FFF80
3FFFFFFF00
1FFFFFFE00
1FFFFFFE00
0FFFFFFC00
07FFFFF800
03FFFFF000
01FFFFE000
007FFF8000
001FFE0000
0001F00000
ENDCHAR
STARTCHAR 0046
ENCODING 70
SWIDTH 979 0
DWIDTH 34 0
BBX 34 34 0 -6
BITMAP
FFFFFFFFC0
FFFFFFFFC0
FFFFFFFFC0
FFFFFFFFC0
FFFFFFFFC0
FFFFFFFFC0
FFFFFFFFC0
FFFFFFFFC0
FFFFFFFFC0
FFFFFFFFC0
FFFFFFFFC0
FFFFFFFFC0
FFFFFFFFC0
FFFFFFFFC0
FFFFFFFFC0
FFFFFFFFC0
FFFFFFFFC0
FFFFFFFFC0
FFFFFFFFC0
FFFFFFFFC0
FFFFFFFFC0
FFFFFFFFC0
FFFFFFFFC0
FFFFFFFFC0
FFFFFFFFC0
FFFFFFFFC0
FFFFFFFFC0
FFFFFFFFC0
FFFFFFFFC0
FFFFFFFFC0
FFFFFFFFC0
FFFFFFFFC0
FFFFFFFFC0
FFFFFFFFC0
ENDCHAR
STARTCHAR 0047
ENCODING 71
SWIDTH 979 0
DWIDTH 34 0
BBX 30 36 2 -7
BITMAP
FF000004
FF00001C
FF00003C
FF0000FC
FF0003FC
FF0007FC
FF001FFC
FF007FFC
FF00FFFC
FF03FFFC
FF07FFFC
FF1FFFFC
FF7FFFFC
FFFFFFFC
FFFFFFFC
FFFFFFFC
FFFFFFFC
FFFFFFFC
FFFFFFFC
FFFFFFFC
FFFFFFFC
FFFFFFFC
FFFFFFFC
FF3FFFFC
FF1FFFFC
FF07FFFC
FF03FFFC
FF00FFFC
FF003FFC
FF001FFC
FF0007FC
FF0001FC
FF0000FC
FF00003C
FF00000C
FF000004
ENDCHAR
STARTCHAR 0048
ENCODING 72
SWIDTH 979 0
DWIDTH 34 0
BBX 34 32 0 -5
BITMAP
0000040040
00001C01C0
00003C03C0
00007C07C0
0001FC1FC0
0003FC3FC0
0007FC7FC0
001FFDFFC0
003FF3FFC0
007FE7FFC0
01FFDFFFC0
03FFBFFFC0
07FE7FFFC0
1FFDFFFFC0
3FFBFFFFC0
FFEFFFFFC0
7FF7FFFFC0
3FF9FFFFC0
0FFCFFFFC0
07FF7FFFC0
03FF9FFFC0
00FFCFFFC0
007FF7FFC0
003FFBFFC0
000FFCFFC0
0007FC7FC0
0003FC3FC0
0000FC0FC0
00007C07C0
00003C03C0
00000C00C0
0000040040
ENDCHAR
STARTCHAR 0049
ENCODING 73
SWIDTH 979 0
DWIDTH 34 0
BBX 34 34 0 -6
BITMAP
F200000000
F380000000
F3C0000000
F3E0000000
F3E0000000
F3E2000000
F3E3800000
F3E3E00000
F3E3F00000
F3E3FC0000
F3E3FE0000
F3E3FF8000
F3E3FFE000
F3E3FFF000
F3E3FFFC00
F3E3FFFF00
F3E3FFFFC0
F3E3FFFF80
F3E3FFFE00
F3E3FFFC00
F3E3FFF000
F3E3FFC000
F3E3FF8000
F3E3FE0000
F3E3F80000
F3E3F00000
F3E3C00000
F3E3000000
F3E2000000
F3E0000000
F3E0000000
F3C0000000
F300000000
F200000000
ENDCHAR
STARTCHAR 004A
ENCODING 74
SWIDTH 979 0
DWIDTH 34 0
BBX 34 33 0 -5
BITMAP
0000400000
0000C00000
0000E00000
0001E00000
0003F00000
0007F80000
000FFC0000
000FFC0000
001FFE0000
003FFF0000
007FFF8000
007FFF8000
00FFFFC000
01FFFFE000
03FFFFF000
03FFFFF000
07FFFFF800
0FFFFFFC00
1FFFFFFE00
1FFFFFFF00
3FFFFFFF00
7FFFFFFF80
FFFFFFFFC0
0000000000
0000000000
FFFFFFFFC0
FFFFFFFFC0
FFFFFFFFC0
FFFFFFFFC0
FFFFFFFFC0
FFFFFFFFC0
FFFFFFFFC0
FFFFFFFFC0
ENDCHAR
STARTCHAR 004B
ENCODING 75
SWIDTH 979 0
DWIDTH 34 0
BBX 34 34 0 -6
BITMAP
0000001C00
0000003C00
0000007C00
0000007C00
000000F800
000000F800
000001F000
000001F000
000003E000
000003E000
1FFFFFC000
3FFFFFC000
3FFFFF8000
7FFFFFC000
FFFFFFC000
03FFFFE000
001FFFF000
00007FF000
0000FFF800
0001FFF800
0001F3FC00
0003E3FC00
0003E1FE00
0007C0FF00
0007807F00
00FF803F80
01FF001F80
01FF000FC0
03FF000F80
000F800780
0007800300
0003800100
0001800000
0001000000
ENDCHAR
STARTCHAR 004C
ENCODING 76
SWIDTH 979 0
DWIDTH 34 0
BBX 28 36 3 -7
BITMAP
00000200
00000200
00000700
00000700
00FFE700
03FFFF80
0FFFFF80
1FFFFFC0
3F8FFFC0
7801FFE0
40007FE0
8000FFE0
0001FFF0
0001FFF0
0003FFC0
0007E000
00000000
00000000
00000000
00000000
00FE0000
FFFC0000
FFF80000
FFF80000
7FF00010
7FE00060
3FF801E0
3FFFFFC0
1FFFFF80
1FFFFF00
1FFFFC00
0E3FF000
0E000000
06000000
04000000
04000000
ENDCHAR
STARTCHAR 004D
ENCODING 77
SWIDTH 979 0
DWIDTH 34 0
BBX 34 29 0 -3
BITMAP
0002000000
007FF00000
01FFFC0000
03FFFE0000
07FFFF8000
0FE03F8000
1F800FC000
3F0007E000
3E0003E000
7C0001F000
780000F000
780000F800
F8001FFFC0
F8000FFF80
F80007FF00
F80003FE00
F80001FC00
F80000F800
7800007000
7C00007000
7C00002000
3E00000000
3F00000000
1FC0080000
0FF0780000
07FFFC0000
03FFFC0000
00FFF80000
003FE00000
ENDCHAR
STARTCHAR 004E
ENCODING 78
SWIDTH 979 0
DWIDTH 34 0
BBX 34 24 0 -1
BITMAP
0000000F00
0000001F80
0000003F80
0000007FC0
000000FFC0
000001FF80
000003FF00
1C0007FE00
3E000FFC00
7F001FF800
FF803FF000
FFC07FE000
7FE0FFC000
3FF1FF8000
1FFBFF0000
0FFFFE0000
07FFFC0000
03FFF80000
01FFF00000
00FFE00000
007FC00000
003F800000
001F000000
000E000000
ENDCHAR
STARTCHAR 004F
ENCODING 79
SWIDTH 979 0
DWIDTH 34 0
BBX 34 34 0 -6
BITMAP
3F00000000
7FF0000000
FFFE000000
FFFF800000
7FFFE00000
7FFFF80000
07FFFC0000
001FFE0000
0007FF0000
0001FF8000
3F007FC000
7FE03FE000
FFF81FF000
FFFE07F800
7FFF07F800
7FFF83FC00
03FFE1FC00
007FE0FE00
001FF0FE00
0007F87F00
0003F87F00
0001FC3F00
0601FC3F80
1F80FE1F80
3FC0FE1F80
7FE07E1F80
7FE07F1FC0
FFF07F1FC0
FFF03F1FC0
7FE03F0FC0
7FE03F0FC0
3FC03F0FC0
1F803E0F80
0600080200
ENDCHAR
STARTCHAR 0050
ENCODING 80
SWIDTH 979 0
DWIDTH 34 0
BBX 32 36 1 -7
BITMAP
0007E000
003FFC00
00FFFF00
01FFFF80
03FFFFC0
07FC3FE0
07F00FE0
0FE007F0
0FC003F0
0F8001F8
1F8001F8
1F0000F8
1F0000F8
1F0000F8
1F0000F8
1F0000F8
FFFFFFFF
FFFFFFFF
FFFFFFFF
FFFFFFFF
FFFFFFFF
FFFC3FFF
FFFC3FFF
FFFC3FFF
FFFC3FFF
FFFE7FFF
FFFE7FFF
FFFE3FFF
FFFC3FFF
FFFC3FFF
FFFC3FFF
FFFFFFFF
FFFFFFFF
FFFFFFFF
FFFFFFFF
FFFFFFFF
ENDCHAR
STARTCHAR 0051
ENCODING 81
SWIDTH 979 0
DWIDTH 34 0
BBX 34 34 0 -6
BITMAP
01FFFFE000
01FFFFE000
01FFFFE000
01FFFFE000
01FFFFE000
01FFFFE000
01FFFFE000
01FFFFE000
01FFFFE000
01FFFFE000
01FFFFE000
01FFFFE000
0000400000
0000400000
0000400000
0000400000
0000400000
01FFFFF000
01FFFFF000
0100001000
0100001000
0100001000
FFFE0FFFC0
FFFE0FFFC0
FFFE0FFFC0
FFFE0FFFC0
FFFE0FFFC0
FFFE0FFFC0
FFFE0FFFC0
FFFE0FFFC0
FFFE0FFFC0
FFFE0FFFC0
FFFE0FFFC0
FFFE0FFFC0
ENDCHAR
STARTCHAR 0052
ENCODING 82
SWIDTH 979 0
DWIDTH 34 0
BBX 34 20 0 1
BITMAP
0006000000
0007000000
0003C00000
00FFE3C000
0FFFF3FC00
1FFFFBFE00
3FFFF3FF00
7FFFE3FF80
7C07C00F80
78070007C0
F8060003C0
F8000003C0
F8000003C0
78000007C0
7C00000F80
7F00001F80
3FFFFFFF00
1FFFFFFE00
0FFFFFFC00
03FFFFF000
ENDCHAR
STARTCHAR 0053
ENCODING 83
SWIDTH 979 0
DWIDTH 34 0
BBX 34 28 0 -3
BITMAP
0000038000
000007C000
00000FE000
00001FF000
00003FF800
FFFE7FFC00
FFFCFFFE00
FFF9FFFF00
FFF3FFFF80
FFF7FFFF80
FFF7C7CFC0
FC0707C380
F9F8F7DC40
FBFFF7DFC0
F3FFF7DFC0
F7FFF7DF80
F7FFF7DF80
F7FFF7DF80
E7FFF7DF00
EFFFF7DF00
EFFFF7DF00
CFFFF7DF00
DFFFF83E00
DFFFFFFE00
DFFFFFFE00
5FFFFFFC00
3FFFFFFC00
1FFFFFF800
ENDCHAR
STARTCHAR 0054
ENCODING 84
SWIDTH 979 0
DWIDTH 34 0
BBX 34 34 0 -6
BITMAP
0007F80000
003FFF0000
00FFFFC000
01FFFFE000
03FFFFF000
07FC0FF800
0FE001FC00
1FC000FE00
3FE0007F00
3FF0003F00
7EF8001F80
7E7C001F80
7C3E000F80
7C1F000F80
F80F8007C0
F807C007C0
F803E007C0
F801F007C0
F800F807C0
FC007C07C0
7C003E0F80
7C001F0F80
7E000F9F80
3E0007DF00
3F0003FF00
1F8001FE00
1FC000FE00
0FF003FC00
07FE1FF800
03FFFFF000
01FFFFE000
007FFF8000
001FFE0000
0001E00000
ENDCHAR
STARTCHAR 0055
ENCODING 85
SWIDTH 979 0
DWIDTH 34 0
BBX 34 30 0 -4
BITMAP
0000400000
0000E00000
0001E00000
0003E00000
0007E00000
000FE00000
001FE00000
003FE00000
007FE00000
FFFFE00000
FFFFE00000
FFFFE00000
FFFFE00000
FFFFE3FFC0
FFFFE3FFC0
FFFFE3FFC0
FFFFE3FFC0
FFFFE00000
FFFFE00000
FFFFE00000
7FFFE00000
003FE00000
003FE00000
001FE00000
000FE00000
0007E00000
0003E00000
0001E00000
0000E00000
0000400000
ENDCHAR
STARTCHAR 0056
ENCODING 86
SWIDTH 979 0
DWIDTH 34 0
BBX 34 31 0 -4
BITMAP
0000400000
0000600000
0000E00000
0001E00000
0003E00000
0007E00000
000FE00000
001FE00000
003FE00000
007FE00000
FFFFE03C00
FFFFE03C00
FFFFE03C00
FFFFE03C00
FFFFE7FFC0
FFFFE7FFC0
FFFFE7FFC0
FFFFE7FFC0
FFFFE03C00
FFFFE03C00
FFFFE03C00
FFFFE03C00
003FE00000
001FE00000
000FE00000
000FE00000
0007E00000
0003E00000
0001E00000
0000E00000
0000600000
ENDCHAR
STARTCHAR 0057
ENCODING 87
SWIDTH 979 0
DWIDTH 34 0
BBX 34 32 0 -4
BITMAP
07F003FC00
1FFC07FE00
3FFE1FFF00
7FFE1FFF80
7FFF3FFF80
FFFFFFFFC0
FFFFFFFFC0
FFFFFFFFC0
FFFFFFFFC0
7FFFFFFFC0
7FFFFFFF80
3FFFFFFF80
3FFFFFFF00
1FFFFFFF00
0FFFFFFE00
07FFFFFC00
03FFFFF800
01FFFFF000
00FFFFE000
007FFFC000
003FFF8000
001FFF0000
000FFE0000
0007FC0000
0003FC0000
0003F80000
0001F00000
0000E00000
0000E00000
0000400000
0000400000
0000400000
ENDCHAR
STARTCHAR 0058
ENCODING 88
SWIDTH 979 0
DWIDTH 34 0
BBX 28 36 3 -7
BITMAP
01C00000
03C00000
03C00000
03C00000
03C00000
03C00000
03C00000
03C00000
03C00000
03C00000
03C70000
03CF0000
03CF1C00
03CF3C70
03CF3CF0
F3CF3CF0
F3FFFFF0
F3FFFFF0
F3FFFFF0
F3FFFFF0
F3FFFFF0
F3FFFFF0
F3FFFFF0
FFFFFFF0
FFFFFFF0
FFFFFFF0
7FFFFFF0
7FFFFFF0
3FFFFFF0
1FFFFFF0
1FFFFFF0
0FFFFFF0
07FFFFF0
07FFFFF0
03FFFFE0
01FFFFC0
ENDCHAR
STARTCHAR 0059
ENCODING 89
SWIDTH 979 0
DWIDTH 34 0
BBX 26 36 4 -7
BITMAP
000C0000
001E0000
001E0000
011E3000
039E7000
039E7000
039E7000
039E7180
039E73C0
039E73C0
039E73C0
039E73C0
039E73C0
039E73C0
039E73C0
039E73C0
039E73C0
739E73C0
F3FFFFC0
F3FFFFC0
F3FFFFC0
F3FFFFC0
F3FFFFC0
F3FFFFC0
FFFFFFC0
FFFFFFC0
7FFFFFC0
7FFFFFC0
3FFFFFC0
3FFFFFC0
1FFFFFC0
0FFFFFC0
0FFFFFC0
07FFFFC0
03FFFF80
01FFFF00
ENDCHAR
STARTCHAR 005A
ENCODING 90
SWIDTH 979 0
DWIDTH 34 0
BBX 34 34 0 -6
BITMAP
0000001C00
0000301C00
0000300E00
0000700E00
0000F00700
0001F08700
0003F1C700
0007F0C780
000FF0E380
001FF0E380
003FF0E380
FFFFF0F3C0
FFFFF073C0
FFFFF073C0
FFFFF073C0
FFFFF073C0
FFFFF073C0
FFFFF073C0
FFFFF073C0
FFFFF073C0
FFFFF073C0
FFFFF0F3C0
FFFFF0E380
FFFFF0E380
003FF0E380
001FF0E380
000FF1C700
0007F1C700
0003F18700
0001F00E00
0000F00E00
0000700C00
0000301C00
0000300800
ENDCHAR
STARTCHAR 005B
ENCODING 91
SWIDTH 979 0
DWIDTH 34 0
BBX 33 33 1 -5
BITMAP
8000000000
C000000000
F000000000
FC00000000
FF00000000
FFC0000000
FFF0000000
FFFC000000
FFFF000000
FFFFC00000
FFFFF00000
FFFFFC0000
FFFFFF0000
FFFFFFC000
FFFFFFF000
FFFFFFFC00
FFFFFFFF80
FFFFFFFE00
FFFFFFF800
FFFFFFE000
FFFFFF8000
FFFFFE0000
FFFFF80000
FFFFE00000
FFFF800000
FFFE000000
FFF8000000
FFE0000000
FF80000000
FE00000000
F800000000
E000000000
8000000000
ENDCHAR
STARTCHAR 005C
ENCODING 92
SWIDTH 979 0
DWIDTH 34 0
BBX 34 34 0 -6
BITMAP
FFFFFFFFC0
7FFFFFFF80
7FFFFFFF80
3FFFFFFF00
3FFFFFFF00
1FFFFFFE00
1FFFFFFE00
0FFFFFFC00
0FFFFFFC00
07FFFFF800
07FFFFF800
03FFFFF000
03FFFFF000
01FFFFE000
01FFFFE000
00FFFFC000
00FFFFC000
007FFF8000
007FFF8000
003FFF0000
003FFF0000
001FFE0000
001FFE0000
000FFC0000
000FFC0000
0007F80000
0007F80000
0003F00000
0003F00000
0001E00000
0001E00000
0000C00000
0000C00000
0000400000
ENDCHAR
STARTCHAR 005D
ENCODING 93
SWIDTH 979 0
DWIDTH 34 0
BBX 34 34 0 -6
BITMAP
0000000040
00000001C0
00000007C0
0000001FC0
0000007FC0
000001FFC0
000007FFC0
00001FFFC0
00007FFFC0
0001FFFFC0
0007FFFFC0
001FFFFFC0
007FFFFFC0
01FFFFFFC0
07FFFFFFC0
1FFFFFFFC0
FFFFFFFFC0
7FFFFFFFC0
1FFFFFFFC0
07FFFFFFC0
01FFFFFFC0
007FFFFFC0
001FFFFFC0
0007FFFFC0
0001FFFFC0
00007FFFC0
00001FFFC0
000007FFC0
000001FFC0
0000007FC0
0000001FC0
00000007C0
00000001C0
0000000040
ENDCHAR
STARTCHAR 005E
ENCODING 94
SWIDTH 979 0
DWIDTH 34 0
BBX 34 12 0 5
BITMAP
0400000800
0400000800
0800000400
1800000600
3FFFFFFF00
FFFFFFFFC0
7FFFFFFF80
3800000700
1800000600
0C00000400
0400000800
0200000800
ENDCHAR
STARTCHAR 005F
ENCODING 95
SWIDTH 979 0
DWIDTH 34 0
BBX 12 36 11 -7
BITMAP
0200
0700
0F80
1FC0
3FE0
CF30
0F00
0F00
0F00
0F00
0F00
0F00
0F00
0F00
0F00
0F00
0F00
0F00
0F00
0F00
0F00
0F00
0F00
0F00
0F00
0F00
0F00
0F00
0F00
8F10
6F60
3FC0
1F80
0F00
0600
0200
ENDCHAR
STARTCHAR 0060
ENCODING 96
SWIDTH 979 0
DWIDTH 34 0
BBX 13 36 11 -7
BITMAP
0700
0700
0700
0700
0700
0700
0700
0700
0700
0700
0700
0700
0700
0700
0700
0700
0700
0700
0700
0700
0700
0700
0700
0700
0700
0700
0700
0700
0700
8708
6770
3FE0
1FC0
0F80
0700
0200
ENDCHAR
STARTCHAR 0061
ENCODING 97
SWIDTH 979 0
DWIDTH 34 0
BBX 34 19 0 2
BITMAP
0000000800
0000000800
003FF01C00
00FFFC1C00
01FFFF3C00
03FFFFFC00
07FFFFFE00
0FFFFFFE00
1FFFFFFE00
1F81FFFE00
3C007FFF00
30001FFF00
60001FFF00
40001FFF80
80003FFF80
00007FFF80
0000FFFF80
0001FFFFC0
0003FFFFC0
ENDCHAR
STARTCHAR 0062
ENCODING 98
SWIDTH 979 0
DWIDTH 34 0
BBX 34 19 0 2
BITMAP
0400000000
0600000000
0601FF0000
0707FFC000
0F1FFFE000
0FFFFFF000
0FFFFFF800
0FFFFFFC00
1FFFFFFC00
1FFFF07E00
1FFF800F00
3FFE000700
3FFE000180
3FFF000080
3FFF000040
7FFF800000
7FFFC00000
7FFFE00000
FFFFF00000
ENDCHAR
STARTCHAR 0063
ENCODING 99
SWIDTH 979 0
DWIDTH 34 0
BBX 34 36 0 -7
BITMAP
0003F00000
0007F80000
0007F80000
0007F80000
0007F80000
0007F80000
0007F80000
0007F80000
0007F80000
0007F80000
0007F80000
0007F80000
0007F80000
0007F80000
0007F80000
0007F80000
0007F80000
7C07F80F80
7F07F83FC0
FFC7F8FFC0
7FF7FBFFC0
7FFFFFFF80
3FFFFFFF00
1FFFFFFE00
0FFFFFFC00
07FFFFF800
03FFFFF000
01FFFFE000
00FFFFC000
007FFF8000
003FFF0000
001FFE0000
000FFC0000
0007F80000
0003F00000
0001E00000
ENDCHAR
STARTCHAR 0064
ENCODING 100
SWIDTH 979 0
DWIDTH 34 0
BBX 34 34 0 -6
BITMAP
0000001000
0000003C00
0000007E00
080000FF00
3C0001FF80
7E0003FF80
7E0007FFC0
FF000FFF80
FF001FFF00
FF803FFE00
FF807FFC00
FF80FFF800
FFC1FFF000
FFC3FFE000
FFC7FFC000
FFEFFF8000
FFFFFF0000
FFFFFE0000
FFFFFC0000
FFFFF80000
FFFFF00000
FFFFE00000
FFFFC00000
FFFFC00000
FFFFF80000
FFFFFF0000
FFFFFFC000
FFFFFFF800
FFFFFFFC00
FFFFFFFE00
7FFFFFFE00
7FFFFFFC00
7FFFFFFC00
1FFFFFF000
ENDCHAR
STARTCHAR 0065
ENCODING 101
SWIDTH 979 0
DWIDTH 34 0
BBX 33 34 1 -6
BITMAP
0400000000
1E00000000
3F00000000
7F80000800
FFC0001E00
FFE0003F00
FFF0003F80
FFF8007F80
7FFC007F80
3FFE007F80
1FFF00FF80
0FFF80FF80
07FFC0FF80
03FFE1FF80
01FFF1FF80
00FFF9FF80
007FFFFF80
003FFFFF80
001FFFFF80
000FFFFF80
0007FFFF80
0003FFFF80
0001FFFF80
0001FFFF80
0007FFFF80
007FFFFF80
01FFFFFF80
0FFFFFFF80
1FFFFFFF80
3FFFFFFF80
3FFFFFFF80
1FFFFFFF00
1FFFFFFF00
07FFFFFE00
ENDCHAR
STARTCHAR 0066
ENCODING 102
SWIDTH 979 0
DWIDTH 34 0
BBX 34 32 0 -5
BITMAP
0003C00000
0007E00000
000FE00000
001FC00000
003FC00000
007FC00000
00FF800000
01FF800000
03FF000000
07FF000000
0FFE000000
1FFE000000
3FFFFFFF80
7FFFFFFFC0
FFFFFFFFC0
FFFFFFFFC0
FFFFFFFFC0
7FFFFFFFC0
3FFFFFFFC0
1FFFFFFF80
0FFE000000
0FFE000000
07FF000000
03FF000000
01FF800000
00FF800000
007FC00000
003FC00000
001FE00000
000FE00000
0007C00000
0001000000
ENDCHAR
STARTCHAR 0067
ENCODING 103
SWIDTH 979 0
DWIDTH 34 0
BBX 34 32 0 -5
BITMAP
0000600000
0000F80000
0001FC0000
0000FE0000
0000FF0000
0000FF8000
00007FC000
00007FE000
00003FF000
00003FF800
00001FFC00
00001FFE00
3FFFFFFF00
7FFFFFFF80
FFFFFFFFC0
FFFFFFFFC0
FFFFFFFFC0
FFFFFFFFC0
FFFFFFFF80
7FFFFFFF00
00001FFE00
00001FFC00
00003FF800
00003FF000
00007FE000
00007FC000
0000FF8000
0000FF0000
0000FE0000
0000FC0000
0000F80000
0000200000
ENDCHAR
STARTCHAR 0068
ENCODING 104
SWIDTH 979 0
DWIDTH 34 0
BBX 34 36 0 -7
BITMAP
0001E00000
0003F00000
0007F80000
000FFC0000
001FFE0000
003FFF0000
007FFF8000
00FFFFC000
01FFFFE000
03FFFFF000
07FFFFF800
0FFFFFFC00
1FFFFFFE00
3FFFFFFF00
7FFFFFFF80
7FFFFBFFC0
FFC7F8FFC0
7F07F83FC0
7C07F80F80
3007F80300
0007F80000
0007F80000
0007F80000
0007F80000
0007F80000
0007F80000
0007F80000
0007F80000
0007F80000
0007F80000
0007F80000
0007F80000
0007F80000
0007F80000
0003F80000
0003F00000
ENDCHAR
STARTCHAR 0069
ENCODING 105
SWIDTH 979 0
DWIDTH 34 0
BBX 34 34 0 -6
BITMAP
3FFFFFF800
7FFFFFFC00
FFFFFFFE00
FFFFFFFE00
FFFFFFFE00
FFFFFFFC00
FFFFFFF800
FFFFFFE000
FFFFFF0000
FFFFF80000
FFFFC00000
FFFFC00000
FFFFE00000
FFFFF00000
FFFFF80000
FFFFFC0000
FFFFFE0000
FFFFFF0000
FFEFFF8000
FFC7FFC000
FFC3FFE000
FFC1FFF000
FF80FFF800
FF807FFC00
FF803FFE00
FF001FFF00
FF000FFF80
FE0007FFC0
7E0003FFC0
3C0001FFC0
080000FF80
0000007F00
0000003E00
0000001C00
ENDCHAR
STARTCHAR 006A
ENCODING 106
SWIDTH 979 0
DWIDTH 34 0
BBX 34 34 0 -6
BITMAP
07FFFFFF00
0FFFFFFF80
1FFFFFFFC0
1FFFFFFFC0
1FFFFFFFC0
0FFFFFFFC0
07FFFFFFC0
00FFFFFFC0
001FFFFFC0
0003FFFFC0
0000FFFFC0
0000FFFFC0
0001FFFFC0
0003FFFFC0
0007FFFFC0
000FFFFFC0
001FFFFFC0
003FFFFFC0
007FFEFFC0
00FFFCFFC0
01FFF8FFC0
03FFF07FC0
07FFE07FC0
0FFFC07FC0
1FFF803FC0
3FFF003FC0
7FFE003FC0
FFFC001FC0
FFF8001F80
7FF0000F00
3FE0000000
1FC0000000
0F80000000
0600000000
ENDCHAR
STARTCHAR 006B
ENCODING 107
SWIDTH 979 0
DWIDTH 34 0
BBX 34 30 0 -4
BITMAP
0000100000
0000100000
0000180000
00001C0000
00001E0000
00001F0000
00001F8000
0001FFC000
007FFFE000
01FFFFF000
03FFFFF800
0FFFFFFC00
1FFFFFFE00
1FFFFFFF00
3FFFFFFF80
3FFFFFFFC0
7FF07FFF00
7F807FFC00
7E007FF000
7C007FE000
F800FF8000
F000FE0000
F000F80000
E000F00000
E000C00000
C001000000
C000000000
8000000000
8000000000
8000000000
ENDCHAR
STARTCHAR 006C
ENCODING 108
SWIDTH 1094 0
DWIDTH 38 0
BBX 37 32 0 -5
BITMAP
0000800000
0001800000
0003800000
0007800000
000F800000
001F800000
003F800000
007F800000
00FFFFC000
01FFFFF800
03FFFFFE00
07FFFFFF00
0FFFFFFF80
1FFFFFFFC0
3FFFFFFFE0
7FFFFFFFE0
FFFFFFFFF0
3FFFF1FFF0
0FFFE01FF0
03FFE007F8
01FFE003F8
007FE001F8
001FF000F8
0007F00078
0003F00038
0000F00038
0000300018
0000100018
0000000008
0000000008
0000000008
0000000008
ENDCHAR
STARTCHAR 006D
ENCODING 109
SWIDTH 979 0
DWIDTH 34 0
BBX 30 36 2 -7
BITMAP
007FF800
007FF800
007FF800
007FF800
007FF800
007FF800
007FF800
007FF800
007FF800
007FF800
007FF800
007FF800
007FF800
007FF800
007FF800
007FF800
007FF800
007FF800
007FF800
807FF800
7FFFFFFC
3FFFFFF0
1FFFFFE0
0FFFFFE0
07FFFFC0
07FFFF80
03FFFF00
01FFFE00
00FFFC00
007FF800
003FF000
001FE000
000FC000
00078000
00030000
00010000
ENDCHAR
STARTCHAR 006E
ENCODING 110
SWIDTH 979 0
DWIDTH 34 0
BBX 34 28 0 -3
BITMAP
0002000000
0002000000
000E000000
001E000000
003E000000
007E000000
00FE000000
01FE000000
03FFFFFFC0
07FFFFFFC0
0FFFFFFFC0
1FFFFFFFC0
3FFFFFFFC0
FFFFFFFFC0
7FFFFFFFC0
3FFFFFFFC0
1FFFFFFFC0
0FFFFFFFC0
07FFFFFFC0
03FE000000
01FE000000
007E000000
003E000000
001E000000
000E000000
0006000000
0002000000
0001000000
ENDCHAR
STARTCHAR 006F
ENCODING 111
SWIDTH 979 0
DWIDTH 34 0
BBX 34 28 0 -3
BITMAP
0000100000
0000180000
00001C0000
00001E0000
00001F0000
00001F8000
00001FC000
00001FE000
FFFFFFF000
FFFFFFF800
FFFFFFFC00
FFFFFFFE00
FFFFFFFF00
FFFFFFFFC0
FFFFFFFF80
FFFFFFFF00
FFFFFFFE00
FFFFFFFC00
FFFFFFF800
00001FF000
00001FE000
00001FC000
00001F0000
00001E0000
00001C0000
0000180000
0000100000
0000200000
ENDCHAR
STARTCHAR 0070
ENCODING 112
SWIDTH 979 0
DWIDTH 34 0
BBX 30 36 2 -7
BITMAP
00010000
00038000
00078000
000FC000
001FE000
003FF000
007FF800
00FFFC00
01FFFE00
03FFFF00
07FFFF80
0FFFFFC0
0FFFFFE0
1FFFFFF0
3FFFFFF8
FFFFFFFC
007FF800
007FF800
007FF800
007FF800
007FF800
007FF800
007FF800
007FF800
007FF800
007FF800
007FF800
007FF800
007FF800
007FF800
007FF800
007FF800
007FF800
007FF800
007FF800
007FF800
ENDCHAR
STARTCHAR 0071
ENCODING 113
SWIDTH 979 0
DWIDTH 34 0
BBX 30 36 2 -7
BITMAP
00000800
00000C00
00001C00
00001E00
00003E00
00003F00
00007F80
0000FF80
0000FFC0
0001FFC0
FC01FFE0
FC03FFE0
FC03FFF0
FC07FFF8
FC0FFFF8
FC0FFFFC
FC1FFFFC
FC003F00
FC003F00
FC003F00
FC003F00
FC003F00
FC003F00
FC003F00
FC003F00
FC003E00
FC007E00
FE007E00
7E00FE00
7F83FC00
3FFFFC00
1FFFF800
1FFFF000
07FFE000
03FF8000
007C0000
ENDCHAR
STARTCHAR 0072
ENCODING 114
SWIDTH 979 0
DWIDTH 34 0
BBX 34 29 0 -3
BITMAP
0001000000
0003000000
000F000000
001F000000
007F000000
01FF000000
03FF000000
0FFFFFC000
3FFFFFF000
FFFFFFFC00
3FFFFFFE00
0FFFFFFF00
07FF00FF00
01FF003F80
007F001F80
001F000FC0
000F000FC0
00030007C0
00010007C0
0000000FC0
0000000FC0
0000001F80
0000001F80
0000007F80
007FFFFF00
007FFFFE00
007FFFFC00
007FFFF800
007FFFE000
ENDCHAR
STARTCHAR 0073
ENCODING 115
SWIDTH 979 0
DWIDTH 34 0
BBX 34 26 0 -2
BITMAP
001FFE0000
00FFFFC000
03FFFFF000
07FFFFF800
1FFFFFFE00
3FFFFFFF00
3FFFFFFF00
7FFFFFFF80
7FFFFFFF80
FFFFFFFFC0
FFFFFFFFC0
FFFFFFFFC0
FFFFFFFFC0
7FFFFFFF80
7FFFFFFF80
7FFFFFFF80
3FFFFFFF00
1FFFFFFE00
0FFFFFFC00
03FFFFF000
01FFFFC000
003FFE0000
000F800000
000F000000
001E000000
0078000000
ENDCHAR
STARTCHAR 0074
ENCODING 116
SWIDTH 979 0
DWIDTH 34 0
BBX 34 28 0 -3
BITMAP
7FFFFFFF80
FFFFFFFFC0
FFFFFFFFC0
FFFFFFFFC0
FFFFFFFFC0
FFFFFFFFC0
FFFFFFFFC0
FFFFFFFFC0
FFFFFFFFC0
FFFFFFFFC0
FFFFFFFFC0
FFFFFFFFC0
FFFFFFFFC0
FFFFFFFFC0
FFFFFFFFC0
FFFFFFFFC0
FFFFFFFFC0
FFFFFFFFC0
FFFFFFFFC0
FFFFFFFFC0
7FFFFFFFC0
3FFFFFFF00
0003C00000
0003800000
0007000000
0006000000
0008000000
0008000000
ENDCHAR
STARTCHAR 0075
ENCODING 117
SWIDTH 979 0
DWIDTH 34 0
BBX 34 26 0 -2
BITMAP
001FFE0000
00FFFFC000
03FFFFF000
0FFFFFFC00
1FFFFFFE00
3FFFFFFF00
7FFFFFFF80
7FFFFFFF80
FFFFFFFF80
FFFFFFFFC0
FFFFFFFFC0
FFFFFFFFC0
FFFFFFFFC0
7FFFFFFF80
7FFFFFFF80
3FFFFFFF80
3FFFFFFF00
1FFFFFFE00
07FFFFFC00
03FFFFF000
00FFFFC000
001FFF0000
00007C0000
00003C0000
00001E0000
0000038000
ENDCHAR
STARTCHAR 0076
ENCODING 118
SWIDTH 979 0
DWIDTH 34 0
BBX 34 28 0 -3
BITMAP
7FFFFFFF80
FFFFFFFFC0
FFFFFFFFC0
FFFFFFFFC0
FFFFFFFFC0
FFFFFFFFC0
FFFFFFFFC0
FFFFFFFFC0
FFFFFFFFC0
FFFFFFFFC0
FFFFFFFFC0
FFFFFFFFC0
FFFFFFFFC0
FFFFFFFFC0
FFFFFFFFC0
FFFFFFFFC0
FFFFFFFFC0
FFFFFFFFC0
FFFFFFFFC0
FFFFFFFFC0
7FFFFFFFC0
3FFFFFFF00
0000F00000
0000700000
0000380000
0000180000
0000040000
0000020000
ENDCHAR
STARTCHAR 0077
ENCODING 119
SWIDTH 979 0
DWIDTH 34 0
BBX 34 34 0 -6
BITMAP
0001E00000
0003F00000
0003F00000
0003F00000
0383F07000
07DFF8F800
0FFFFFFC00
0FFFFFFC00
0FFFFFFC00
07FFFFF800
03FFFFF000
07FFFFE000
07FC0FF000
07F807F000
7FF003FF80
7FF003FFC0
FFF003FFC0
FFF003FFC0
7FF003FF80
7FF003FF80
07F807F000
03FC0FE000
03FFFFE000
03FFFFF000
07FFFFF800
0FFFFFFC00
0FFFFFFC00
0FEFF9FC00
07C3F0F800
0383F07000
0003F00000
0003F00000
0003F00000
0000C00000
ENDCHAR
STARTCHAR 0078
ENCODING 120
SWIDTH 979 0
DWIDTH 34 0
BBX 34 28 0 -3
BITMAP
19C0000000
1DC0000000
1FD8000000
1FF8000000
FCF8000000
F870180000
38703C3000
187C3C7800
7CFC3FF800
7FE07FF800
2FE7FFF800
0FEFFFF800
0E6FFFFF80
0007F07FC0
0003E03FC0
0003E03F80
0003E03E00
000FE03C00
001FE03C00
001FF07F00
000FFFFF80
0000FFFF80
0000FFEF80
0000FFE200
0000FFE000
0000F1E000
000061E000
000000C000
ENDCHAR
STARTCHAR 0079
ENCODING 121
SWIDTH 979 0
DWIDTH 34 0
BBX 34 30 0 -4
BITMAP
001F800000
007FE07C00
00FFF8FF00
01FC01F800
03F801F000
07F803FBC0
0FFC03FF80
0FFE03FF00
7F7F07FE00
FE1F87FC00
7E0FCFF800
7C07FFF800
1C01FF8000
0800FE0000
0001FC0000
0003FE0000
0007FF0000
000FFF8000
001FCFC000
007F87E000
00FF03F000
01FE01F800
03FC01FC00
0FF800FE00
1FF0007F00
1FE0003FC0
3FC0001F80
1F80000F00
0F00000600
0000000400
ENDCHAR
STARTCHAR 007A
ENCODING 122
SWIDTH 979 0
DWIDTH 34 0
BBX 34 34 0 -6
BITMAP
0000080000
0000180000
0000100000
0000300000
0000700000
0000F00000
0000F00000
0001E00000
0001E00000
0001E00000
0001E00000
0003C00000
0003C00000
0003C001C0
0003C01F00
0FC7C3FE00
3FF7BFFC00
7FF7FFF800
78FFFFE000
F07FFE0000
F0FFC00000
FFFF000000
7FEFC00000
3FDFC00000
0E3FE00000
003DE00000
0078E00000
0078E00000
0078E00000
0079E00000
007FC00000
003FC00000
001F000000
0004000000
ENDCHAR
STARTCHAR 007B
ENCODING 123
SWIDTH 979 0
DWIDTH 34 0
BBX 34 32 0 -5
BITMAP
000003F800
000001E000
000001F000
000000F800
000000BC00
0000009E00
0000000F00
0000000700
0000000780
0000000380
0000000380
00000001C0
00000001C0
00000001C0
00000001C0
E0000001C0
E0000001C0
E0000001C0
7000000380
7000000380
7000000380
3800000780
3C00000700
1C00000F00
1E00001E00
0F00003C00
078000F800
03E001F000
01FE1FE000
007FFF8000
001FFE0000
0001F00000
ENDCHAR
STARTCHAR 007C
ENCODING 124
SWIDTH 979 0
DWIDTH 34 0
BBX 34 32 0 -5
BITMAP
07F0000000
01E0000000
03E0000000
07E0000000
0F40000000
1E40000000
1C00000000
3800000000
3800000000
7000000000
7000000000
7000000000
E000000000
E000000000
E000000000
E0000001C0
E0000001C0
E0000001C0
7000000380
7000000380
7000000380
3800000780
3800000700
3C00000F00
1E00001E00
0F00003C00
0780007800
03E001F000
01FC0FE000
007FFFC000
001FFF0000
0003F00000
ENDCHAR
STARTCHAR 007D
ENCODING 125
SWIDTH 489 0
DWIDTH 17 0
BBX 0 0 0 0
BITMAP
ENDCHAR
STARTCHAR 007E
ENCODING 126
SWIDTH 489 0
DWIDTH 17 0
BBX 0 0 0 0
BITMAP
ENDCHAR
STARTCHAR 00A0
ENCODING 160
SWIDTH 259 0
DWIDTH 9 0
BBX 0 0 0 0
BITMAP
ENDCHAR
STARTCHAR 00A1
ENCODING 161
SWIDTH 316 0
DWIDTH 11 0
BBX 0 0 0 0
BITMAP
ENDCHAR
STARTCHAR 00A2
ENCODING 162
SWIDTH 547 0
DWIDTH 19 0
BBX 0 0 0 0
BITMAP
ENDCHAR
STARTCHAR 00A3
ENCODING 163
SWIDTH 489 0
DWIDTH 17 0
BBX 0 0 0 0
BITMAP
ENDCHAR
STARTCHAR 00A4
ENCODING 164
SWIDTH 489 0
DWIDTH 17 0
BBX 0 0 0 0
BITMAP
ENDCHAR
STARTCHAR 00A5
ENCODING 165
SWIDTH 633 0
DWIDTH 22 0
BBX 0 0 0 0
BITMAP
ENDCHAR
STARTCHAR 00A6
ENCODING 166
SWIDTH 489 0
DWIDTH 17 0
BBX 0 0 0 0
BITMAP
ENDCHAR
STARTCHAR 00A7
ENCODING 167
SWIDTH 489 0
DWIDTH 17 0
BBX 0 0 0 0
BITMAP
ENDCHAR
STARTCHAR 00A8
ENCODING 168
SWIDTH 518 0
DWIDTH 18 0
BBX 0 0 0 0
BITMAP
ENDCHAR
STARTCHAR 00A9
ENCODING 169
SWIDTH 835 0
DWIDTH 29 0
BBX 0 0 0 0
BITMAP
ENDCHAR
STARTCHAR 00AA
ENCODING 170
SWIDTH 316 0
DWIDTH 11 0
BBX 0 0 0 0
BITMAP
ENDCHAR
STARTCHAR 00AB
ENCODING 171
SWIDTH 460 0
DWIDTH 16 0
BBX 0 0 0 0
BITMAP
ENDCHAR
STARTCHAR 00AC
ENCODING 172
SWIDTH 489 0
DWIDTH 17 0
BBX 0 0 0 0
BITMAP
ENDCHAR
STARTCHAR 00AD
ENCODING 173
SWIDTH 979 0
DWIDTH 34 0
BBX 34 34 0 -6
BITMAP
0007F80000
003FFF0000
00FC0FC000
01E001E000
0380007800
0700003C00
0F00021C00
1D80060E00
38C0060700
30600E0300
70301E0380
60183E0180
60007E0180
601FFE01C0
E01FFE00C0
C01FFE00C0
C01FFE00C0
C01FFE00C0
E01FFE00C0
E01FFE01C0
601FFE01C0
60007E0180
70003E0180
30001E8380
38000E4300
1800066700
1C00023E00
0E00001C00
0700003800
03C0007000
01F003E000
007F3F8000
001FFE0000
0003E00000
ENDCHAR
STARTCHAR 00AE
ENCODING 174
SWIDTH 835 0
DWIDTH 29 0
BBX 0 0 0 0
BITMAP
ENDCHAR
STARTCHAR 00AF
ENCODING 175
SWIDTH 316 0
DWIDTH 11 0
BBX 0 0 0 0
BITMAP
ENDCHAR
STARTCHAR 00B0
ENCODING 176
SWIDTH 345 0
DWIDTH 12 0
BBX 0 0 0 0
BITMAP
ENDCHAR
STARTCHAR 00B1
ENCODING 177
SWIDTH 489 0
DWIDTH 17 0
BBX 0 0 0 0
BITMAP
ENDCHAR
STARTCHAR 00B2
ENCODING 178
SWIDTH 489 0
DWIDTH 17 0
BBX 0 0 0 0
BITMAP
ENDCHAR
STARTCHAR 00B3
ENCODING 179
SWIDTH 489 0
DWIDTH 17 0
BBX 0 0 0 0
BITMAP
ENDCHAR
STARTCHAR 00B4
ENCODING 180
SWIDTH 518 0
DWIDTH 18 0
BBX 0 0 0 0
BITMAP
ENDCHAR
STARTCHAR 00B5
ENCODING 181
SWIDTH 576 0
DWIDTH 20 0
BBX 0 0 0 0
BITMAP
ENDCHAR
STARTCHAR 00B6
ENCODING 182
SWIDTH 518 0
DWIDTH 18 0
BBX 0 0 0 0
BITMAP
ENDCHAR
STARTCHAR 00B7
ENCODING 183
SWIDTH 259 0
DWIDTH 9 0
BBX 0 0 0 0
BITMAP
ENDCHAR
STARTCHAR 00B8
ENCODING 184
SWIDTH 518 0
DWIDTH 18 0
BBX 0 0 0 0
BITMAP
ENDCHAR
STARTCHAR 00B9
ENCODING 185
SWIDTH 489 0
DWIDTH 17 0
BBX 0 0 0 0
BITMAP
ENDCHAR
STARTCHAR 00BA
ENCODING 186
SWIDTH 345 0
DWIDTH 12 0
BBX 0 0 0 0
BITMAP
ENDCHAR
STARTCHAR 00BB
ENCODING 187
SWIDTH 460 0
DWIDTH 16 0
BBX 0 0 0 0
BITMAP
ENDCHAR
STARTCHAR 00BC
ENCODING 188
SWIDTH 835 0
DWIDTH 29 0
BBX 0 0 0 0
BITMAP
ENDCHAR
STARTCHAR 00BD
ENCODING 189
SWIDTH 979 0
DWIDTH 34 0
BBX 0 0 0 0
BITMAP
ENDCHAR
STARTCHAR 00BE
ENCODING 190
SWIDTH 835 0
DWIDTH 29 0
BBX 0 0 0 0
BITMAP
ENDCHAR
STARTCHAR 00BF
ENCODING 191
SWIDTH 374 0
DWIDTH 13 0
BBX 0 0 0 0
BITMAP
ENDCHAR
STARTCHAR 00C0
ENCODING 192
SWIDTH 748 0
DWIDTH 26 0
BBX 0 0 0 0
BITMAP
ENDCHAR
STARTCHAR 00C1
ENCODING 193
SWIDTH 748 0
DWIDTH 26 0
BBX 0 0 0 0
BITMAP
ENDCHAR
STARTCHAR 00C2
ENCODING 194
SWIDTH 748 0
DWIDTH 26 0
BBX 0 0 0 0
BITMAP
ENDCHAR
STARTCHAR 00C3
ENCODING 195
SWIDTH 748 0
DWIDTH 26 0
BBX 0 0 0 0
BITMAP
ENDCHAR
STARTCHAR 00C4
ENCODING 196
SWIDTH 748 0
DWIDTH 26 0
BBX 0 0 0 0
BITMAP
ENDCHAR
STARTCHAR 00C5
ENCODING 197
SWIDTH 748 0
DWIDTH 26 0
BBX 0 0 0 0
BITMAP
ENDCHAR
STARTCHAR 00C6
ENCODING 198
SWIDTH 1036 0
DWIDTH 36 0
BBX 0 0 0 0
BITMAP
ENDCHAR
STARTCHAR 00C7
ENCODING 199
SWIDTH 691 0
DWIDTH 24 0
BBX 0 0 0 0
BITMAP
ENDCHAR
STARTCHAR 00C8
ENCODING 200
SWIDTH 576 0
DWIDTH 20 0
BBX 0 0 0 0
BITMAP
ENDCHAR
STARTCHAR 00C9
ENCODING 201
SWIDTH 576 0
DWIDTH 20 0
BBX 0 0 0 0
BITMAP
ENDCHAR
STARTCHAR 00CA
ENCODING 202
SWIDTH 576 0
DWIDTH 20 0
BBX 0 0 0 0
BITMAP
ENDCHAR
STARTCHAR 00CB
ENCODING 203
SWIDTH 576 0
DWIDTH 20 0
BBX 0 0 0 0
BITMAP
ENDCHAR
STARTCHAR 00CC
ENCODING 204
SWIDTH 316 0
DWIDTH 11 0
BBX 0 0 0 0
BITMAP
ENDCHAR
STARTCHAR 00CD
ENCODING 205
SWIDTH 316 0
DWIDTH 11 0
BBX 0 0 0 0
BITMAP
ENDCHAR
STARTCHAR 00CE
ENCODING 206
SWIDTH 316 0
DWIDTH 11 0
BBX 0 0 0 0
BITMAP
ENDCHAR
STARTCHAR 00CF
ENCODING 207
SWIDTH 316 0
DWIDTH 11 0
BBX 0 0 0 0
BITMAP
ENDCHAR
STARTCHAR 00D0
ENCODING 208
SWIDTH 748 0
DWIDTH 26 0
BBX 0 0 0 0
BITMAP
ENDCHAR
STARTCHAR 00D1
ENCODING 209
SWIDTH 777 0
DWIDTH 27 0
BBX 0 0 0 0
BITMAP
ENDCHAR
STARTCHAR 00D2
ENCODING 210
SWIDTH 806 0
DWIDTH 28 0
BBX 0 0 0 0
BITMAP
ENDCHAR
STARTCHAR 00D3
ENCODING 211
SWIDTH 806 0
DWIDTH 28 0
BBX 0 0 0 0
BITMAP
ENDCHAR
STARTCHAR 00D4
ENCODING 212
SWIDTH 806 0
DWIDTH 28 0
BBX 0 0 0 0
BITMAP
ENDCHAR
STARTCHAR 00D5
ENCODING 213
SWIDTH 806 0
DWIDTH 28 0
BBX 0 0 0 0
BITMAP
ENDCHAR
STARTCHAR 00D6
ENCODING 214
SWIDTH 806 0
DWIDTH 28 0
BBX 0 0 0 0
BITMAP
ENDCHAR
STARTCHAR 00D7
ENCODING 215
SWIDTH 489 0
DWIDTH 17 0
BBX 0 0 0 0
BITMAP
ENDCHAR
STARTCHAR 00D8
ENCODING 216
SWIDTH 806 0
DWIDTH 28 0
BBX 0 0 0 0
BITMAP
ENDCHAR
STARTCHAR 00D9
ENCODING 217
SWIDTH 748 0
DWIDTH 26 0
BBX 0 0 0 0
BITMAP
ENDCHAR
STARTCHAR 00DA
ENCODING 218
SWIDTH 748 0
DWIDTH 26 0
BBX 0 0 0 0
BITMAP
ENDCHAR
STARTCHAR 00DB
ENCODING 219
SWIDTH 748 0
DWIDTH 26 0
BBX 0 0 0 0
BITMAP
ENDCHAR
STARTCHAR 00DC
ENCODING 220
SWIDTH 748 0
DWIDTH 26 0
BBX 0 0 0 0
BITMAP
ENDCHAR
STARTCHAR 00DD
ENCODING 221
SWIDTH 604 0
DWIDTH 21 0
BBX 0 0 0 0
BITMAP
ENDCHAR
STARTCHAR 00DE
ENCODING 222
SWIDTH 547 0
DWIDTH 19 0
BBX 0 0 0 0
BITMAP
ENDCHAR
STARTCHAR 00DF
ENCODING 223
SWIDTH 604 0
DWIDTH 21 0
BBX 0 0 0 0
BITMAP
ENDCHAR
STARTCHAR 00E0
ENCODING 224
SWIDTH 460 0
DWIDTH 16 0
BBX 0 0 0 0
BITMAP
ENDCHAR
STARTCHAR 00E1
ENCODING 225
SWIDTH 460 0
DWIDTH 16 0
BBX 0 0 0 0
BITMAP
ENDCHAR
STARTCHAR 00E2
ENCODING 226
SWIDTH 460 0
DWIDTH 16 0
BBX 0 0 0 0
BITMAP
ENDCHAR
STARTCHAR 00E3
ENCODING 227
SWIDTH 460 0
DWIDTH 16 0
BBX 0 0 0 0
BITMAP
ENDCHAR
STARTCHAR 00E4
ENCODING 228
SWIDTH 460 0
DWIDTH 16 0
BBX 0 0 0 0
BITMAP
ENDCHAR
STARTCHAR 00E5
ENCODING 229
SWIDTH 460 0
DWIDTH 16 0
BBX 0 0 0 0
BITMAP
ENDCHAR
STARTCHAR 00E6
ENCODING 230
SWIDTH 720 0
DWIDTH 25 0
BBX 0 0 0 0
BITMAP
ENDCHAR
STARTCHAR 00E7
ENCODING 231
SWIDTH 432 0
DWIDTH 15 0
BBX 0 0 0 0
BITMAP
ENDCHAR
STARTCHAR 00E8
ENCODING 232
SWIDTH 460 0
DWIDTH 16 0
BBX 0 0 0 0
BITMAP
ENDCHAR
STARTCHAR 00E9
ENCODING 233
SWIDTH 460 0
DWIDTH 16 0
BBX 0 0 0 0
BITMAP
ENDCHAR
STARTCHAR 00EA
ENCODING 234
SWIDTH 460 0
DWIDTH 16 0
BBX 0 0 0 0
BITMAP
ENDCHAR
STARTCHAR 00EB
ENCODING 235
SWIDTH 460 0
DWIDTH 16 0
BBX 0 0 0 0
BITMAP
ENDCHAR
STARTCHAR 00EC
ENCODING 236
SWIDTH 259 0
DWIDTH 9 0
BBX 0 0 0 0
BITMAP
ENDCHAR
STARTCHAR 00ED
ENCODING 237
SWIDTH 259 0
DWIDTH 9 0
BBX 0 0 0 0
BITMAP
ENDCHAR
STARTCHAR 00EE
ENCODING 238
SWIDTH 259 0
DWIDTH 9 0
BBX 0 0 0 0
BITMAP
ENDCHAR
STARTCHAR 00EF
ENCODING 239
SWIDTH 259 0
DWIDTH 9 0
BBX 0 0 0 0
BITMAP
ENDCHAR
STARTCHAR 00F0
ENCODING 240
SWIDTH 547 0
DWIDTH 19 0
BBX 0 0 0 0
BITMAP
ENDCHAR
STARTCHAR 00F1
ENCODING 241
SWIDTH 547 0
DWIDTH 19 0
BBX 0 0 0 0
BITMAP
ENDCHAR
STARTCHAR 00F2
ENCODING 242
SWIDTH 489 0
DWIDTH 17 0
BBX 0 0 0 0
BITMAP
ENDCHAR
STARTCHAR 00F3
ENCODING 243
SWIDTH 489 0
DWIDTH 17 0
BBX 0 0 0 0
BITMAP
ENDCHAR
STARTCHAR 00F4
ENCODING 244
SWIDTH 489 0
DWIDTH 17 0
BBX 0 0 0 0
BITMAP
ENDCHAR
STARTCHAR 00F5
ENCODING 245
SWIDTH 489 0
DWIDTH 17 0
BBX 0 0 0 0
BITMAP
ENDCHAR
STARTCHAR 00F6
ENCODING 246
SWIDTH 489 0
DWIDTH 17 0
BBX 0 0 0 0
BITMAP
ENDCHAR
STARTCHAR 00F7
ENCODING 247
SWIDTH 489 0
DWIDTH 17 0
BBX 0 0 0 0
BITMAP
ENDCHAR
STARTCHAR 00F8
ENCODING 248
SWIDTH 489 0
DWIDTH 17 0
BBX 0 0 0 0
BITMAP
ENDCHAR
STARTCHAR 00F9
ENCODING 249
SWIDTH 518 0
DWIDTH 18 0
BBX 0 0 0 0
BITMAP
ENDCHAR
STARTCHAR 00FA
ENCODING 250
SWIDTH 518 0
DWIDTH 18 0
BBX 0 0 0 0
BITMAP
ENDCHAR
STARTCHAR 00FB
ENCODING 251
SWIDTH 518 0
DWIDTH 18 0
BBX 0 0 0 0
BITMAP
ENDCHAR
STARTCHAR 00FC
ENCODING 252
SWIDTH 518 0
DWIDTH 18 0
BBX 0 0 0 0
BITMAP
ENDCHAR
STARTCHAR 00FD
ENCODING 253
SWIDTH 432 0
DWIDTH 15 0
BBX 0 0 0 0
BITMAP
ENDCHAR
STARTCHAR 00FE
ENCODING 254
SWIDTH 489 0
DWIDTH 17 0
BBX 0 0 0 0
BITMAP
ENDCHAR
STARTCHAR 00FF
ENCODING 255
SWIDTH 432 0
DWIDTH 15 0
BBX 0 0 0 0
BITMAP
ENDCHAR
STARTCHAR 0131
ENCODING 305
SWIDTH 259 0
DWIDTH 9 0
BBX 0 0 0 0
BITMAP
ENDCHAR
STARTCHAR 02C6
ENCODING 710
SWIDTH 518 0
DWIDTH 18 0
BBX 0 0 0 0
BITMAP
ENDCHAR
STARTCHAR 02C7
ENCODING 711
SWIDTH 518 0
DWIDTH 18 0
BBX 0 0 0 0
BITMAP
ENDCHAR
STARTCHAR 02C9
ENCODING 713
SWIDTH 518 0
DWIDTH 18 0
BBX 0 0 0 0
BITMAP
ENDCHAR
STARTCHAR 02D8
ENCODING 728
SWIDTH 518 0
DWIDTH 18 0
BBX 0 0 0 0
BITMAP
ENDCHAR
STARTCHAR 02D9
ENCODING 729
SWIDTH 518 0
DWIDTH 18 0
BBX 0 0 0 0
BITMAP
ENDCHAR
STARTCHAR 02DA
ENCODING 730
SWIDTH 518 0
DWIDTH 18 0
BBX 0 0 0 0
BITMAP
ENDCHAR
STARTCHAR 02DB
ENCODING 731
SWIDTH 518 0
DWIDTH 18 0
BBX 0 0 0 0
BITMAP
ENDCHAR
STARTCHAR 02DC
ENCODING 732
SWIDTH 518 0
DWIDTH 18 0
BBX 0 0 0 0
BITMAP
ENDCHAR
STARTCHAR 02DD
ENCODING 733
SWIDTH 518 0
DWIDTH 18 0
BBX 0 0 0 0
BITMAP
ENDCHAR
STARTCHAR 037E
ENCODING 894
SWIDTH 979 0
DWIDTH 34 0
BBX 34 34 0 -6
BITMAP
0000C00000
0000C00000
0000C00000
0000C00000
0000C00000
0000C00000
0000C00000
0000C00000
0000C00000
0000C00000
0000C00000
0000C00000
0000C00000
0000C00000
0000C00000
0000C00000
FFFFFFFFC0
FFFFFFFFC0
0000C00000
0000C00000
0000C00000
0000C00000
0000C00000
0000C00000
0000C00000
0000C00000
0000C00000
0000C00000
0000C00000
0000C00000
0000C00000
0000C00000
0000C00000
0000C00000
ENDCHAR
STARTCHAR 2013
ENCODING 8211
SWIDTH 547 0
DWIDTH 19 0
BBX 0 0 0 0
BITMAP
ENDCHAR
STARTCHAR 2014
ENCODING 8212
SWIDTH 1008 0
DWIDTH 35 0
BBX 0 0 0 0
BITMAP
ENDCHAR
STARTCHAR 2018
ENCODING 8216
SWIDTH 288 0
DWIDTH 10 0
BBX 0 0 0 0
BITMAP
ENDCHAR
STARTCHAR 2019
ENCODING 8217
SWIDTH 288 0
DWIDTH 10 0
BBX 0 0 0 0
BITMAP
ENDCHAR
STARTCHAR 201A
ENCODING 8218
SWIDTH 288 0
DWIDTH 10 0
BBX 0 0 0 0
BITMAP
ENDCHAR
STARTCHAR 201C
ENCODING 8220
SWIDTH 460 0
DWIDTH 16 0
BBX 0 0 0 0
BITMAP
ENDCHAR
STARTCHAR 201D
ENCODING 8221
SWIDTH 460 0
DWIDTH 16 0
BBX 0 0 0 0
BITMAP
ENDCHAR
STARTCHAR 201E
ENCODING 8222
SWIDTH 460 0
DWIDTH 16 0
BBX 0 0 0 0
BITMAP
ENDCHAR
STARTCHAR 2020
ENCODING 8224
SWIDTH 489 0
DWIDTH 17 0
BBX 0 0 0 0
BITMAP
ENDCHAR
STARTCHAR 2021
ENCODING 8225
SWIDTH 489 0
DWIDTH 17 0
BBX 0 0 0 0
BITMAP
ENDCHAR
STARTCHAR 2022
ENCODING 8226
SWIDTH 518 0
DWIDTH 18 0
BBX 0 0 0 0
BITMAP
ENDCHAR
STARTCHAR 2026
ENCODING 8230
SWIDTH 1008 0
DWIDTH 35 0
BBX 0 0 0 0
BITMAP
ENDCHAR
STARTCHAR 2039
ENCODING 8249
SWIDTH 316 0
DWIDTH 11 0
BBX 0 0 0 0
BITMAP
ENDCHAR
STARTCHAR 203A
ENCODING 8250
SWIDTH 316 0
DWIDTH 11 0
BBX 0 0 0 0
BITMAP
ENDCHAR
STARTCHAR 2044
ENCODING 8260
SWIDTH 172 0
DWIDTH 6 0
BBX 0 0 0 0
BITMAP
ENDCHAR
STARTCHAR 20A3
ENCODING 8355
SWIDTH 489 0
DWIDTH 17 0
BBX 0 0 0 0
BITMAP
ENDCHAR
STARTCHAR 20A4
ENCODING 8356
SWIDTH 489 0
DWIDTH 17 0
BBX 0 0 0 0
BITMAP
ENDCHAR
STARTCHAR 20A7
ENCODING 8359
SWIDTH 1008 0
DWIDTH 35 0
BBX 0 0 0 0
BITMAP
ENDCHAR
STARTCHAR 20AC
ENCODING 8364
SWIDTH 489 0
DWIDTH 17 0
BBX 0 0 0 0
BITMAP
ENDCHAR
STARTCHAR 2116
ENCODING 8470
SWIDTH 1123 0
DWIDTH 39 0
BBX 0 0 0 0
BITMAP
ENDCHAR
STARTCHAR 2122
ENCODING 8482
SWIDTH 748 0
DWIDTH 26 0
BBX 0 0 0 0
BITMAP
ENDCHAR
STARTCHAR 2202
ENCODING 8706
SWIDTH 489 0
DWIDTH 17 0
BBX 0 0 0 0
BITMAP
ENDCHAR
STARTCHAR 2206
ENCODING 8710
SWIDTH 518 0
DWIDTH 18 0
BBX 0 0 0 0
BITMAP
ENDCHAR
STARTCHAR 220F
ENCODING 8719
SWIDTH 748 0
DWIDTH 26 0
BBX 0 0 0 0
BITMAP
ENDCHAR
STARTCHAR 2211
ENCODING 8721
SWIDTH 604 0
DWIDTH 21 0
BBX 0 0 0 0
BITMAP
ENDCHAR
STARTCHAR 2212
ENCODING 8722
SWIDTH 489 0
DWIDTH 17 0
BBX 0 0 0 0
BITMAP
ENDCHAR
STARTCHAR 2215
ENCODING 8725
SWIDTH 172 0
DWIDTH 6 0
BBX 0 0 0 0
BITMAP
ENDCHAR
STARTCHAR 2219
ENCODING 8729
SWIDTH 259 0
DWIDTH 9 0
BBX 0 0 0 0
BITMAP
ENDCHAR
STARTCHAR 221A
ENCODING 8730
SWIDTH 489 0
DWIDTH 17 0
BBX 0 0 0 0
BITMAP
ENDCHAR
STARTCHAR 221E
ENCODING 8734
SWIDTH 489 0
DWIDTH 17 0
BBX 0 0 0 0
BITMAP
ENDCHAR
STARTCHAR 222B
ENCODING 8747
SWIDTH 316 0
DWIDTH 11 0
BBX 0 0 0 0
BITMAP
ENDCHAR
STARTCHAR 2248
ENCODING 8776
SWIDTH 489 0
DWIDTH 17 0
BBX 0 0 0 0
BITMAP
ENDCHAR
STARTCHAR 2264
ENCODING 8804
SWIDTH 489 0
DWIDTH 17 0
BBX 0 0 0 0
BITMAP
ENDCHAR
STARTCHAR 2265
ENCODING 8805
SWIDTH 489 0
DWIDTH 17 0
BBX 0 0 0 0
BITMAP
ENDCHAR
STARTCHAR F001
ENCODING 61441
SWIDTH 518 0
DWIDTH 18 0
BBX 0 0 0 0
BITMAP
ENDCHAR
STARTCHAR F002
ENCODING 61442
SWIDTH 518 0
DWIDTH 18 0
BBX 0 0 0 0
BITMAP
ENDCHAR
STARTCHAR FB01
ENCODING 64257
SWIDTH 518 0
DWIDTH 18 0
BBX 0 0 0 0
BITMAP
ENDCHAR
STARTCHAR FB02
ENCODING 64258
SWIDTH 518 0
DWIDTH 18 0
BBX 0 0 0 0
BITMAP
ENDCHAR
ENDFONT
